<?xml version="1.0" encoding="iso-8859-1"?>
<!DOCTYPE svg PUBLIC "-//W3C//DTD SVG 1.1//EN" "http://www.w3.org/Graphics/SVG/1.1/DTD/svg11.dtd">
<svg 
 version="1.1" xmlns="http://www.w3.org/2000/svg" xmlns:xlink="http://www.w3.org/1999/xlink" x="0px" y="0px" width="512px"
	 height="512px" viewBox="0 0 512 512" style="enable-background:new 0 0 512 512;" xml:space="preserve"
><g id="afcae5a789ccd549f9c6e2a2f8091edd"><g></g><g fill="#6c7075"><path style="display: inline;" d="M45.497,345.815c-2.434-4.215-3.854-6.674,18.886-22.61c4.799,3.452,11.33,7.626,19.53,11.777
		c-21.744,11.881-30.368,15.061-33.997,14.145C48.021,348.646,46.451,347.467,45.497,345.815z M501.979,307.204
		c-4.146-1.057-11.873,1.893-53.908,26.726c3.639-2.332,7.127-4.591,10.457-6.755c40.896-26.599,42.83-28.998,39.055-35.535
		c-0.885-1.524-2.627-2.822-4.332-3.253c-3.844-0.976-10.557,1.302-41.732,19.431c38.553-25.333,39.209-28.692,35.744-34.691
		c-0.881-1.522-2.6-2.802-4.301-3.234c-6.256-1.598-22.066,6.525-147.398,82.72c6.133-3.856,12.158-7.636,18.006-11.306
		c36.455-22.892,70.889-44.504,96.289-60.972c13.66-8.853,23.59-15.492,30.354-20.297c9.926-7.049,15.92-11.302,12.316-17.54
		c-0.971-1.688-2.58-2.89-4.527-3.382c-4.127-1.03-13.945,2.681-38.66,16.416c2.15-1.366,4.266-2.706,6.334-4.026
		c17.701-11.287,30.576-19.797,39.363-26.024c12.697-8.996,19.148-13.993,15.406-20.48c-0.881-1.522-2.563-2.779-4.27-3.214
		c-4.596-1.184-14.889,3.264-77.947,40.909c17.42-11.242,30.572-20.054,40.041-26.825c16.508-11.807,22.85-17.282,18.988-23.964
		c-0.879-1.524-2.693-2.865-4.404-3.3c-3.158-0.794-9.826,1.447-26.326,10.35c36.838-24.486,35.172-27.372,32.291-32.366
		c-0.984-1.701-2.604-2.91-4.566-3.409c-2.445-0.619-6.879,0.395-15.018,4.028c29.68-19.986,28.068-22.769,25.373-27.435
		c-0.871-1.52-2.572-2.783-4.268-3.221c-4.568-1.173-15.553,3.441-74.369,38.025c60.764-38.586,59.053-41.532,55.605-47.502
		c-0.971-1.683-2.572-2.881-4.51-3.371c-4.479-1.132-15.469,3.266-45.561,20.328c10.471-6.8,18.918-12.469,25.523-17.141
		c16.082-11.371,22.727-17.06,18.844-23.779c-0.879-1.522-2.627-2.822-4.328-3.257c-3.752-0.953-11.096,1.561-41.232,18.768
		c-42.213,48.562-108.129,102.679-108.129,102.679s-25.854-13.984-41.465-24.849c-15.805-11.006-18.192-21.283-18.192-21.283
		s25.987-44.379,57.514-91.936c-5.334,3.148-11.086,6.566-17.301,10.275c3.633-2.305,7.154-4.548,10.543-6.717
		c2.68-1.719,5.211-3.353,7.67-4.942c10.689-16.087,21.984-32.493,33.104-47.627c6.121-8.327,12.357-16.104,18.428-23.263
		c-0.717-0.513-1.533-0.91-2.422-1.134c-5.725-1.45-22.156,6.58-84.807,44.254c44.195-29.021,42.916-31.237,39.809-36.613
		c-0.877-1.522-2.596-2.799-4.301-3.234c-6.338-1.615-20.869,5.977-148.687,83.992c25.568-16.486,50.746-32.792,69.84-45.602
		c39.758-26.666,42.272-29.95,38.53-36.429c-0.881-1.529-2.678-2.854-4.387-3.284c-4.783-1.2-13.252,2.271-62.76,32.332
		c38.516-26.355,37.726-27.712,34.624-33.087c-0.881-1.527-2.527-2.754-4.232-3.187c-4.592-1.168-8.557,0.159-76.355,41.619
		c6.329-4.768,12.258-9.273,17.352-13.224c18.11-14.045,22.978-17.822,19.435-23.962c-0.88-1.52-2.396-2.663-4.092-3.101
		c-3.838-0.991-4.146-1.073-53.622,28.796c-15.933,9.618-35.603,21.492-39.958,23.545c-0.676,0.136-1.343,0.383-1.973,0.749
		c-3.121,1.803-4.196,5.795-2.391,8.919c0.88,1.517,2.373,2.649,4.069,3.084c2.123,0.556,3.058,0.787,11.573-4.003
		c-7.404,5.557-14.354,10.813-20.095,15.259c-17.092,13.229-21.685,16.783-18.212,22.792c0.88,1.526,2.479,2.722,4.185,3.155
		c2.121,0.538,3.441,0.88,12.986-4.28c-3.371,2.312-6.594,4.532-9.631,6.64c-31.992,22.197-34.288,24.491-30.71,30.683
		c0.882,1.531,2.604,2.808,4.316,3.239c3.212,0.81,7.696-0.419,27.165-11.643c-9.926,6.499-19.226,12.641-27.521,18.219
		c-44.037,29.605-44.908,32.473-41.276,38.76c0.88,1.524,2.606,2.808,4.312,3.242c4.124,1.052,11.638-1.71,50.311-24.459
		c-54.748,35.253-53.668,37.12-50.315,42.925c0.88,1.527,2.679,2.856,4.387,3.289c3.105,0.783,8.796-0.882,25.892-10.168
		c-6.85,4.455-12.432,8.188-16.858,11.28c-10.783,7.529-17.906,12.503-14.104,19.085c0.88,1.527,2.581,2.79,4.29,3.226
		c4.43,1.123,12.616-2.198,64.129-33.146C-3.505,262.571-2.001,265.157,1.884,271.89c0.88,1.521,2.638,2.826,4.339,3.262
		c3.895,0.982,11.509-1.645,44.266-20.485c-39.52,26.249-37.869,29.111-34.891,34.265c0.878,1.52,2.588,2.794,4.289,3.229
		c3.035,0.785,8.672-0.894,28.79-11.961c-7.729,4.988-14.052,9.198-19.09,12.705c-13.231,9.205-19.961,14.317-16.141,20.932
		c0.878,1.52,2.643,2.835,4.346,3.271c2.738,0.699,7.878-0.689,21.803-7.889c-1.592,1.094-3.105,2.137-4.539,3.144
		c-18.916,13.247-24.575,18.755-20.814,25.269c0.966,1.675,2.556,2.863,4.478,3.357c4.237,1.053,15.172-3.33,43.605-19.289
		c-5.181-3.893-7.844-6.542-7.844-6.542s6.773,1.461,16.445,1.66c7.347-4.205,15.612-9.014,25.069-14.59
		c-8.814,5.667-16.168,10.479-22.313,14.608c14.34-0.087,33.741-3.203,47.405-16.999c24.893-25.133,18.527-74.656,58.781-104.368
		c25.908-19.126,52.778-14.728,52.778-14.728s4.392,10.94,23.658,27.124c20.465,17.191,55.877,39.686,55.877,39.686
		s-17.203,79.933-94.529,99.076c-60.985,15.103-105.934,2.246-133.046-11.3c-14.587,9.29-25.802,16.689-33.957,22.419
		c-15.583,10.952-21.551,16.06-17.772,22.61c0.971,1.679,2.57,2.877,4.505,3.366c5.294,1.315,19.856-5.148,64.905-31.543
		c-44.756,28.976-43.129,31.783-40.003,37.195c0.875,1.521,2.574,2.786,4.271,3.222c2.903,0.744,8.454-0.862,27.517-11.215
		c-43.458,27.782-41.957,30.382-38.949,35.594c0.957,1.656,2.527,2.831,4.423,3.313c5.423,1.388,21.36-6.179,78.267-40.14
		c-54.646,34.378-53.318,36.678-50.021,42.39c0.98,1.696,2.59,2.895,4.542,3.394c6.369,1.605,26.262-8.085,92.387-47.657
		c-82.911,51.472-81.885,53.26-78.075,59.855c0.958,1.656,2.527,2.831,4.423,3.316c5.176,1.312,20.664-5.712,69.995-34.555
		c-54.053,35.004-52.352,37.926-49.008,43.719c0.884,1.528,2.599,2.804,4.305,3.239c5.888,1.479,19.462-5.335,129.537-72.649
		c-108.918,69.319-107.38,71.996-103.166,79.291c0.88,1.524,2.581,2.794,4.287,3.229c3.892,0.989,11.142-1.646,47.371-22.818
		c-45.974,29.71-46.881,32.768-43.184,39.168c0.88,1.524,2.69,2.858,4.396,3.294c4.845,1.238,15.66-3.32,64.487-32.301
		c-29.887,20.497-28.421,23.019-25.641,27.846c0.88,1.524,2.559,2.772,4.26,3.208c3.793,0.966,10.348-1.366,45.792-22.188
		c-1.488,0.961-2.953,1.909-4.387,2.84c-43.937,28.508-44.699,30.83-41.07,37.122c0.88,1.521,2.495,2.731,4.191,3.167
		c0.504,0.132,1.008,0.223,1.624,0.223c5.616,0,20.129-7.948,122.198-69.8c2.922-1.778,5.889-3.575,8.883-5.386
		c-82.947,57.098-82.262,58.277-78.248,65.223c0.877,1.52,2.424,2.686,4.119,3.121c4.188,1.08,4.955,1.266,82.648-45.724
		c31.584-19.104,70.643-42.73,78.111-45.811c0.951-0.068,1.914-0.35,2.799-0.857c3.121-1.806,4.191-5.798,2.391-8.919
		c-0.881-1.52-2.436-2.694-4.137-3.13c-3.449-0.898-4.691-1.198-48.197,24.824c18.404-12.64,35.48-24.407,48.832-33.897
		c27.191-19.345,30.861-22.533,27.246-28.789c-0.881-1.521-2.5-2.736-4.201-3.176c-1.715-0.436-3.543-0.454-9.463,2.305
		c53.201-34.551,51.781-37.01,48.424-42.835C505.385,308.905,503.68,307.64,501.979,307.204z"></path></g></g></svg>