<?xml version="1.0" encoding="UTF-8" standalone="no"?>
<svg width="60px" height="60px" viewBox="0 0 60 60" version="1.1" xmlns="http://www.w3.org/2000/svg" xmlns:xlink="http://www.w3.org/1999/xlink" xmlns:sketch="http://www.bohemiancoding.com/sketch/ns">
    <!-- Generator: Sketch 3.2.2 (9983) - http://www.bohemiancoding.com/sketch -->
    <title>Yearparty</title>
    <desc>Created with Sketch.</desc>
    <defs></defs>
    <g id="stroked" stroke="none" stroke-width="1" fill="none" fill-rule="evenodd" sketch:type="MSPage">
        <g id="Holidays" sketch:type="MSLayerGroup" transform="translate(-373.000000, -718.000000)" stroke="#46317e" stroke-width="2" stroke-linecap="round" stroke-linejoin="round">
            <g id="Yearparty" transform="translate(376.000000, 723.000000)" sketch:type="MSShapeGroup">
                <path d="M23.5,19 L20,1 L26.5,0.5 L23.5,19 Z" id="Path-4227"></path>
                <path d="M29,20.5 L37,12.5 L40,17 L31.5,22.5 L29,20.5 Z" id="Path-4228"></path>
                <path d="M33.5,27.5 L53.5,15 L54.5,22.5 L33.5,27.5 Z" id="Path-4229"></path>
                <path d="M34.5,32.5 L43,33 L34.5,37 L34.5,32.5 Z" id="Path-4230"></path>
                <path d="M19,20.5 L12,16 L16,22 L19,20.5 Z" id="Path-4231"></path>
                <path d="M16,26.5 L3.5,33.5 L0.5,43.5 L16,26.5 Z" id="Path-4232"></path>
                <path d="M20,29.5 L17.5,39 L23,39 L20,29.5 Z" id="Path-4233"></path>
                <path d="M25,28 L28.5,51 L35,48.5 L25,28 Z" id="Path-4234"></path>
                <polygon id="Star-35" points="44 11.5 41.0610737 13.045085 41.6223587 9.77254249 39.2447174 7.45491503 42.5305369 6.97745751 44 4 45.4694631 6.97745751 48.7552826 7.45491503 46.3776413 9.77254249 46.9389263 13.045085 "></polygon>
                <polygon id="Star-35" transform="translate(15.500000, 46.500000) rotate(-33.000000) translate(-15.500000, -46.500000) " points="15.5 48.75 12.3180195 49.6819805 13.25 46.5 12.3180195 43.3180195 15.5 44.25 18.6819805 43.3180195 17.75 46.5 18.6819805 49.6819805 "></polygon>
                <circle id="Oval-1685" cx="43" cy="41" r="3"></circle>
                <circle id="Oval-1685" cx="7" cy="9" r="3"></circle>
            </g>
        </g>
    </g>
</svg>